Coordinates
version=1
nRows=19
nColumns=33
inDegrees=yes

Units are S.I. units (second, meters, Newtons, ...)
Angles are in degrees.

endheader
time	ground_thorax_rot_x	ground_thorax_rot_y	ground_thorax_rot_z	ground_thorax_tx	ground_thorax_ty	ground_thorax_tz	clav_prot_r	clav_elev_r	scapula_abduction_r	scapula_elevation_r	scapula_upward_rot_r	scapula_winging_r	shoulder_elv_r	plane_of_elev_r	axial_rot_r	elbow_flexion_r	pro_sup_r	wrist_flex_r	wrist_dev_r	clav_prot_l	clav_elev_l	scapula_abduction_l	scapula_elevation_l	scapula_upward_rot_l	scapula_winging_l	shoulder_elv_l	plane_of_elev_l	axial_rot_l	elbow_flexion_l	pro_sup_l	wrist_flex_l	wrist_dev_l
      6.45000000	    -40.57949336	    -10.18170011	      7.62884884	   -188.59322330	    831.30919994	     -9.66015497	      9.43238152	    -45.00000000	     32.24405592	    -45.00000000	    -45.00000000	   1702.26501108	  -2092.46833163	     27.88144324	     91.09431359	   1452.19683717	   -330.81193750	     18.00427148	      7.71003732	     15.41260285	     38.49170521	    -34.94146407	    -45.00000000	    -45.00000000	     81.72814366	  -2980.40527411	    141.20426519	    156.34747252	     10.34888226	     39.19032569	      8.47580013	    -22.19092566
      6.46000000	    -40.61987530	     -9.93565497	      7.64665884	   -189.70862073	    832.33396568	     -9.82974804	      8.85449396	    -45.00000000	     32.07067702	    -45.00000000	    -45.00000000	   1702.23707397	  -2092.50419532	     27.84765048	     90.75757685	   1452.18100320	   -330.81621869	     18.12824828	      7.68775710	     15.22105525	     38.90396044	    -35.16921077	    -45.00000000	    -45.00000000	     81.93939556	  -2980.46434726	    141.42433630	    155.57722511	     10.41390332	     38.24498297	      8.64947584	    -22.16982602
      6.47000000	    -40.48685121	     -9.60974825	      7.38421692	   -190.61622741	    833.26750994	     -9.99048860	      9.13364044	    -45.00000000	     32.18027762	    -45.00000000	    -45.00000000	   1702.14003020	  -2092.47742298	     28.12515268	     90.86604653	   1452.25960988	   -330.81840375	     18.00221368	      7.62286168	     15.35802311	     38.48347504	    -34.96775450	    -45.00000000	    -45.00000000	     81.83644486	  -2980.42169955	    141.18944781	    155.47353130	     10.30544683	     37.53083661	      8.56724274	    -22.09648279
      6.48000000	    -40.41276104	     -9.84263569	      7.73648407	   -191.32823937	    834.11968800	    -10.13651553	      8.98187322	    -45.00000000	     32.11848885	    -45.00000000	    -45.00000000	   1702.01340596	  -2092.16134664	     28.06478947	     90.65844999	   1452.42039752	   -330.85448298	     18.12569151	      7.53158190	     15.21896586	     38.84893374	    -34.93012656	    -45.00000000	    -45.00000000	     82.07125266	  -2980.57724048	    141.51547096	    155.36908674	     10.50202332	     37.03073198	      8.74862684	    -22.18860161
      6.49000000	    -40.42398650	     -9.63717538	      7.66019127	   -191.86279580	    834.90493993	    -10.26455026	      9.18891435	    -45.00000000	     32.16033357	    -45.00000000	    -45.00000000	   1701.95576200	  -2092.38625300	     28.10804001	     90.71387526	   1452.38374021	   -330.86319663	     17.95865434	      7.52148974	     15.33324317	     38.36802682	    -34.85245357	    -45.00000000	    -45.00000000	     82.01413326	  -2980.46405421	    141.46846777	    155.20675317	     10.38098229	     36.56674417	      8.52296678	    -22.04421137
      6.50000000	    -40.39389355	     -9.46644780	      7.62789789	   -192.23013790	    835.62454781	    -10.37150189	      9.14298682	    -45.00000000	     32.17471697	    -45.00000000	    -45.00000000	   1701.98029815	  -2092.36167688	     28.16037147	     90.56223419	   1452.35318467	   -330.89373455	     17.99614013	      7.45072975	     15.22247485	     38.68471226	    -34.79600551	    -45.00000000	    -45.00000000	     82.05028498	  -2980.35254581	    141.42361787	    154.83731966	     10.43485026	     36.33044761	      8.74576936	    -22.15852757
      6.51000000	    -40.31235617	     -9.50169012	      7.66071764	   -192.45328366	    836.29107720	    -10.45942174	      9.22049569	    -45.00000000	     32.26657491	    -45.00000000	    -45.00000000	   1701.93098058	  -2092.28553054	     28.23443226	     90.54851461	   1452.51913312	   -330.92600567	     17.91170707	      7.46360780	     15.31420092	     38.21500372	    -34.83973274	    -45.00000000	    -45.00000000	     82.15659721	  -2980.52017753	    141.60208243	    154.75899085	     10.47827911	     36.11397016	      8.36086371	    -21.98520559
      6.52000000	    -40.30371764	     -9.32829430	      7.63757024	   -192.55409244	    836.91368053	    -10.53251363	      9.22517817	    -45.00000000	     32.25448147	    -45.00000000	    -45.00000000	   1701.94905629	  -2092.34621492	     28.25898017	     90.45597847	   1452.45836981	   -330.94808200	     17.99696571	      7.32694300	     15.21779553	     38.85945812	    -34.68658961	    -45.00000000	    -45.00000000	     82.07043576	  -2980.09092141	    141.53353325	    154.32088792	     10.70423679	     36.09829809	      8.77027555	    -22.24863512
      6.53000000	    -40.22164029	     -9.31179120	      7.79009063	   -192.55471011	    837.50525758	    -10.59712643	      9.28251424	    -45.00000000	     32.30656215	    -45.00000000	    -45.00000000	   1701.91774580	  -2092.33953765	     28.18515256	     90.49182176	   1452.47622721	   -330.93855411	     17.88190309	      7.44595449	     15.28293308	     38.21760812	    -34.80293396	    -45.00000000	    -45.00000000	     82.10589595	  -2980.31967758	    141.60033711	    154.28384317	     10.55408718	     36.05638386	      8.28625517	    -21.97738521
      6.54000000	    -40.15449041	     -9.30220811	      7.79804195	   -192.47536835	    838.06480299	    -10.65836557	      9.26747595	    -45.00000000	     32.37722072	    -45.00000000	    -45.00000000	   1701.84175495	  -2092.26764043	     28.29637860	     90.33654730	   1452.56041378	   -330.95239111	     17.94394628	      7.21746308	     15.19899379	     38.75380309	    -34.81909974	    -45.00000000	    -45.00000000	     82.17766994	  -2980.30707152	    141.62943758	    153.98598240	     10.69947207	     36.17292261	      8.53837900	    -22.13090082
      6.55000000	    -40.16518542	     -9.30265936	      7.73112300	   -192.33501704	    838.60786835	    -10.72188225	      9.33359089	    -45.00000000	     32.39099643	    -45.00000000	    -45.00000000	   1701.99586568	  -2092.24050667	     28.33293440	     90.41872763	   1452.61565240	   -330.87389088	     17.89951706	      7.49494654	     15.30742060	     37.95575650	    -34.83976234	    -45.00000000	    -45.00000000	     82.32636539	  -2980.31664014	    141.63090398	    153.99949789	     10.78275360	     36.21907297	      7.96561141	    -21.90191089
      6.56000000	    -40.08798034	     -9.29194893	      7.88679037	   -192.14917488	    839.14149189	    -10.79002021	      9.29425013	    -45.00000000	     32.46051631	    -45.00000000	    -45.00000000	   1701.90721921	  -2092.23316599	     28.26580188	     90.35614438	   1452.61091736	   -330.76501960	     17.95741911	      7.31154443	     15.20755983	     38.45827625	    -34.82594649	    -45.00000000	    -45.00000000	     82.29382037	  -2980.23330619	    141.63098562	    153.78997289	     10.83291561	     36.48623843	      8.20640525	    -22.01536480
      6.57000000	    -40.03444575	     -9.18204502	      7.80283638	   -191.93036799	    839.67446504	    -10.86270321	      9.37694618	    -45.00000000	     32.45166028	    -45.00000000	    -45.00000000	   1701.82503343	  -2092.21858688	     28.46190356	     90.20857980	   1452.66479351	   -330.64478159	     17.86024478	      7.19478859	     15.25217837	     38.37319350	    -34.92582242	    -45.00000000	    -45.00000000	     82.24574883	  -2980.20353398	    141.70131272	    153.65014709	     10.90670716	     36.69776317	      8.02289678	    -22.00719062
      6.58000000	    -40.00195007	     -9.31999261	      7.92379036	   -191.68506696	    840.22166639	    -10.93907126	      9.32197632	    -45.00000000	     32.55320084	    -45.00000000	    -45.00000000	   1701.94331095	  -2092.10722822	     28.36336402	     90.20326341	   1452.66829031	   -330.42946139	     18.00613515	      7.29227781	     15.24802265	     38.47924230	    -34.86182656	    -45.00000000	    -45.00000000	     82.40496037	  -2980.16367217	    141.60921168	    153.59164906	     10.98577144	     36.97323841	      8.02125502	    -21.99003439
      6.59000000	    -39.95276571	     -9.12501134	      7.76019101	   -191.42164102	    840.78669137	    -11.01609171	      9.43043984	    -45.00000000	     32.53359266	    -45.00000000	    -45.00000000	   1701.79991985	  -2092.16022701	     28.63660040	     90.06450831	   1452.70327862	   -330.20900289	     17.80951284	      7.07172979	     15.21833513	     38.33847072	    -35.07274364	    -45.00000000	    -45.00000000	     82.31982930	  -2980.12167977	    141.71212524	    153.51264973	     11.10205181	     37.27377006	      7.81461362	    -22.02427909
      6.60000000	    -39.92020460	     -9.40411739	      7.95834292	   -191.14094108	    841.38421810	    -11.09275172	      9.32497871	    -45.00000000	     32.69130769	    -45.00000000	    -45.00000000	   1701.97537479	  -2091.94968216	     28.39052333	     90.05645952	   1452.78240013	   -329.87828448	     18.11271560	      7.30324851	     15.31187832	     38.52690533	    -34.87766563	    -45.00000000	    -45.00000000	     82.60274252	  -2980.03038994	    141.54273195	    153.53433978	     11.16874314	     37.64196688	      7.82882950	    -21.98450716
      6.61000000	    -39.87878193	     -8.97479270	      7.61681268	   -190.84581298	    842.02004969	    -11.16725348	      9.52358799	    -45.00000000	     32.58681020	    -45.00000000	    -45.00000000	   1701.70106143	  -2092.11351655	     28.85401861	     89.83158075	   1452.73934858	   -329.57095535	     17.70090470	      6.86918879	     15.15432492	     38.27684434	    -35.30571541	    -45.00000000	    -45.00000000	     82.39492694	  -2980.02519799	    141.77384087	    153.44411211	     11.29363640	     38.03813492	      7.61463652	    -22.08035650
      6.62000000	    -39.84298351	     -9.24113948	      7.96036536	   -190.52979970	    842.71640141	    -11.24015144	      9.41175612	    -45.00000000	     32.68016674	    -45.00000000	    -45.00000000	   1701.86709879	  -2091.90807683	     28.50788044	     89.81477684	   1452.82501507	   -329.06835573	     18.06929712	      7.18269250	     15.27009294	     38.49532688	    -35.08126032	    -45.00000000	    -45.00000000	     82.54161319	  -2979.81004168	    141.51659513	    153.50347841	     11.22661778	     38.55383418	      7.65358588	    -22.01443918
      6.63000000	    -39.83622825	     -9.00328256	      7.70035122	   -190.19303672	    843.47949448	    -11.30945514	      9.53259891	    -45.00000000	     32.83719546	    -45.00000000	    -45.00000000	   1701.71011663	  -2092.01583356	     28.81489327	     89.50643334	   1452.88732309	   -328.64907492	     17.78299580	      6.79673288	     15.22880524	     38.33934392	    -35.44772797	    -45.00000000	    -45.00000000	     82.67091571	  -2979.89161264	    141.54504598	    153.52313897	     11.36509007	     39.00081924	      7.42134621	    -22.06298606
